<svg width="6" height="5" viewBox="0 0 6 5" fill="none" xmlns="http://www.w3.org/2000/svg">
<path fill-rule="evenodd" clip-rule="evenodd" d="M5.5 0.208322C5.5 0.153072 5.47805 0.100084 5.43898 0.0610163C5.39992 0.0219482 5.34693 0 5.29168 0H2.79181C2.73656 0 2.68357 0.0219482 2.6445 0.0610163C2.60544 0.100084 2.58349 0.153072 2.58349 0.208322C2.58349 0.263573 2.60544 0.31656 2.6445 0.355629C2.68357 0.394697 2.73656 0.416645 2.79181 0.416645H4.78879L0.561093 4.64392C0.541724 4.66329 0.52636 4.68629 0.515878 4.71159C0.505395 4.7369 0.5 4.76402 0.5 4.79141C0.5 4.81881 0.505395 4.84593 0.515878 4.87124C0.52636 4.89654 0.541724 4.91954 0.561093 4.93891C0.580462 4.95828 0.603457 4.97364 0.628763 4.98412C0.65407 4.99461 0.681194 5 0.708586 5C0.735977 5 0.763101 4.99461 0.788408 4.98412C0.813714 4.97364 0.836709 4.95828 0.856078 4.93891L5.08336 0.711213V2.70819C5.08336 2.76344 5.1053 2.81643 5.14437 2.8555C5.18344 2.89457 5.23643 2.91651 5.29168 2.91651C5.34693 2.91651 5.39992 2.89457 5.43898 2.8555C5.47805 2.81643 5.5 2.76344 5.5 2.70819V0.208322Z" fill="white"/>
</svg>
