<svg width="82" height="100" viewBox="0 0 82 100" fill="none" xmlns="http://www.w3.org/2000/svg">
<path d="M68.75 0H25C21.6848 0 18.5054 1.31696 16.1612 3.66117C13.817 6.00537 12.5 9.18479 12.5 12.5C9.18479 12.5 6.00537 13.817 3.66116 16.1612C1.31696 18.5054 0 21.6848 0 25V87.5C0 90.8152 1.31696 93.9946 3.66116 96.3388C6.00537 98.683 9.18479 100 12.5 100H56.25C59.5652 100 62.7446 98.683 65.0888 96.3388C67.433 93.9946 68.75 90.8152 68.75 87.5C72.0652 87.5 75.2446 86.183 77.5888 83.8388C79.933 81.4946 81.25 78.3152 81.25 75V12.5C81.25 9.18479 79.933 6.00537 77.5888 3.66117C75.2446 1.31696 72.0652 0 68.75 0ZM68.75 81.25V25C68.75 21.6848 67.433 18.5054 65.0888 16.1612C62.7446 13.817 59.5652 12.5 56.25 12.5H18.75C18.75 10.8424 19.4085 9.25268 20.5806 8.08058C21.7527 6.90848 23.3424 6.25 25 6.25H68.75C70.4076 6.25 71.9973 6.90848 73.1694 8.08058C74.3415 9.25268 75 10.8424 75 12.5V75C75 76.6576 74.3415 78.2473 73.1694 79.4194C71.9973 80.5915 70.4076 81.25 68.75 81.25ZM6.25 25C6.25 23.3424 6.90848 21.7527 8.08058 20.5806C9.25268 19.4085 10.8424 18.75 12.5 18.75H56.25C57.9076 18.75 59.4973 19.4085 60.6694 20.5806C61.8415 21.7527 62.5 23.3424 62.5 25V87.5C62.5 89.1576 61.8415 90.7473 60.6694 91.9194C59.4973 93.0915 57.9076 93.75 56.25 93.75H12.5C10.8424 93.75 9.25268 93.0915 8.08058 91.9194C6.90848 90.7473 6.25 89.1576 6.25 87.5V25Z" fill="black"/>
</svg>
